<svg width="110" height="112" viewBox="0 0 110 112" fill="none" xmlns="http://www.w3.org/2000/svg">
<path d="M45.9489 67.3409C44.4716 67.3409 43.1754 66.9893 42.0604 66.2862C40.9524 65.5831 40.0859 64.5994 39.4609 63.3352C38.843 62.071 38.5341 60.5937 38.5341 58.9034C38.5341 57.1989 38.843 55.7109 39.4609 54.4396C40.0859 53.1683 40.9524 52.1811 42.0604 51.478C43.1754 50.7749 44.4716 50.4233 45.9489 50.4233C47.4261 50.4233 48.7188 50.7749 49.8267 51.478C50.9418 52.1811 51.8082 53.1683 52.4261 54.4396C53.0511 55.7109 53.3636 57.1989 53.3636 58.9034C53.3636 60.5937 53.0511 62.071 52.4261 63.3352C51.8082 64.5994 50.9418 65.5831 49.8267 66.2862C48.7188 66.9893 47.4261 67.3409 45.9489 67.3409ZM45.9489 65.0824C47.071 65.0824 47.9943 64.7947 48.7188 64.2195C49.4432 63.6442 49.9794 62.8878 50.3274 61.9503C50.6754 61.0128 50.8494 59.9972 50.8494 58.9034C50.8494 57.8097 50.6754 56.7905 50.3274 55.8459C49.9794 54.9013 49.4432 54.1378 48.7188 53.5554C47.9943 52.973 47.071 52.6818 45.9489 52.6818C44.8267 52.6818 43.9034 52.973 43.179 53.5554C42.4545 54.1378 41.9183 54.9013 41.5703 55.8459C41.2223 56.7905 41.0483 57.8097 41.0483 58.9034C41.0483 59.9972 41.2223 61.0128 41.5703 61.9503C41.9183 62.8878 42.4545 63.6442 43.179 64.2195C43.9034 64.7947 44.8267 65.0824 45.9489 65.0824ZM59.7157 57.1562V67H57.2015V50.6364H59.6305V53.1932H59.8436C60.2271 52.3622 60.8095 51.6946 61.5907 51.1903C62.372 50.679 63.3805 50.4233 64.6163 50.4233C65.7243 50.4233 66.6937 50.6506 67.5247 51.1051C68.3556 51.5526 69.002 52.2344 69.4636 53.1506C69.9252 54.0597 70.1561 55.2102 70.1561 56.6023V67H67.6419V56.7727C67.6419 55.4872 67.3081 54.4858 66.6404 53.7685C65.9728 53.044 65.0566 52.6818 63.8919 52.6818C63.0893 52.6818 62.372 52.8558 61.7399 53.2038C61.1149 53.5518 60.6213 54.0597 60.2591 54.7273C59.8968 55.3949 59.7157 56.2045 59.7157 57.1562Z" fill="black"/>
<rect x="38" y="63" width="35" height="8" fill="#F9F9FA"/>
<path d="M38.9999 63H69.4999L108 110.5L106.5 111.5H54.5H4L1.5 110L38.9999 63Z" fill="#D9D9D9"/>
<path d="M38.9999 63H69.4999L108 110.5L106.5 111.5H54.5H4L1.5 110L38.9999 63Z" fill="#D9D9D9"/>
<rect x="0.5" y="0.5" width="109" height="111" rx="4.5" stroke="black"/>
<path d="M35.0028 23.9091C34.8537 22.6496 34.2488 21.6719 33.1882 20.9759C32.1276 20.2798 30.8267 19.9318 29.2855 19.9318C28.1586 19.9318 27.1726 20.1141 26.3274 20.4787C25.4905 20.8433 24.8359 21.3446 24.3636 21.9826C23.8996 22.6206 23.6676 23.3456 23.6676 24.1577C23.6676 24.8371 23.8292 25.4213 24.1523 25.9102C24.4838 26.3907 24.9064 26.7926 25.4201 27.1158C25.9338 27.4306 26.4724 27.6916 27.0359 27.8988C27.5993 28.0977 28.1172 28.2592 28.5895 28.3835L31.1747 29.0795C31.8376 29.2536 32.575 29.4938 33.3871 29.8004C34.2074 30.107 34.9904 30.5254 35.7362 31.0558C36.4902 31.5778 37.1116 32.2489 37.6005 33.0692C38.0894 33.8896 38.3338 34.8963 38.3338 36.0895C38.3338 37.465 37.9734 38.7079 37.2525 39.8182C36.5399 40.9285 35.4959 41.811 34.1204 42.4656C32.7532 43.1201 31.0919 43.4474 29.1364 43.4474C27.3134 43.4474 25.735 43.1533 24.4009 42.565C23.0752 41.9767 22.0311 41.1564 21.2688 40.104C20.5148 39.0517 20.0881 37.8295 19.9886 36.4375H23.1705C23.2533 37.3987 23.5765 38.1941 24.1399 38.8239C24.7116 39.4453 25.4325 39.9093 26.3026 40.2159C27.1809 40.5142 28.1255 40.6634 29.1364 40.6634C30.313 40.6634 31.3694 40.4728 32.3058 40.0916C33.2421 39.7022 33.9837 39.1636 34.5305 38.4759C35.0774 37.7798 35.3509 36.9678 35.3509 36.0398C35.3509 35.1946 35.1147 34.5069 34.6424 33.9766C34.1701 33.4463 33.5487 33.0154 32.7781 32.6839C32.0075 32.3525 31.1747 32.0625 30.2798 31.8139L27.1477 30.919C25.1591 30.3473 23.5848 29.5311 22.4247 28.4705C21.2647 27.4099 20.6847 26.022 20.6847 24.3068C20.6847 22.8816 21.07 21.6387 21.8406 20.5781C22.6194 19.5092 23.6635 18.6806 24.9727 18.0923C26.2901 17.4957 27.7609 17.1974 29.3849 17.1974C31.0256 17.1974 32.4839 17.4916 33.7599 18.0799C35.036 18.6599 36.0469 19.4554 36.7926 20.4663C37.5466 21.4772 37.9444 22.6248 37.9858 23.9091H35.0028ZM51.3066 23.9091V26.3949H41.4131V23.9091H51.3066ZM44.2966 19.3352H47.2298V37.5312C47.2298 38.3598 47.35 38.9813 47.5903 39.3956C47.8389 39.8016 48.1537 40.075 48.5349 40.2159C48.9243 40.3485 49.3345 40.4148 49.7654 40.4148C50.0885 40.4148 50.3537 40.3982 50.5608 40.3651C50.768 40.3236 50.9337 40.2905 51.058 40.2656L51.6546 42.9006C51.4557 42.9751 51.1781 43.0497 50.8218 43.1243C50.4655 43.2071 50.0139 43.2486 49.4671 43.2486C48.6385 43.2486 47.8264 43.0704 47.031 42.7141C46.2438 42.3578 45.5892 41.8151 45.0672 41.0859C44.5535 40.3568 44.2966 39.437 44.2966 38.3267V19.3352ZM61.3367 43.4474C60.127 43.4474 59.0291 43.2196 58.0431 42.7638C57.057 42.2998 56.274 41.6328 55.694 40.7628C55.114 39.8845 54.824 38.8239 54.824 37.581C54.824 36.4872 55.0394 35.6006 55.4703 34.9212C55.9011 34.2334 56.477 33.6948 57.1979 33.3054C57.9188 32.916 58.7142 32.6259 59.5843 32.4354C60.4626 32.2365 61.345 32.0791 62.2316 31.9631C63.3917 31.8139 64.3321 31.7021 65.053 31.6275C65.7822 31.5446 66.3125 31.4079 66.6439 31.2173C66.9836 31.0268 67.1535 30.6953 67.1535 30.223V30.1236C67.1535 28.8973 66.8179 27.9444 66.1468 27.2649C65.4839 26.5855 64.4771 26.2457 63.1265 26.2457C61.7262 26.2457 60.6283 26.5523 59.8328 27.1655C59.0374 27.7786 58.4781 28.4332 58.1549 29.1293L55.3708 28.1349C55.868 26.9749 56.5309 26.0717 57.3595 25.4254C58.1963 24.7708 59.1078 24.3151 60.0938 24.0582C61.0882 23.7931 62.0659 23.6605 63.0271 23.6605C63.6402 23.6605 64.3445 23.7351 65.14 23.8842C65.9437 24.0251 66.7185 24.3192 67.4642 24.7667C68.2182 25.2141 68.8438 25.8894 69.341 26.7926C69.8382 27.6958 70.0867 28.9055 70.0867 30.4219V43H67.1535V40.4148H67.0044C66.8055 40.8291 66.474 41.2724 66.01 41.7447C65.546 42.217 64.9287 42.6188 64.1581 42.9503C63.3875 43.2817 62.4471 43.4474 61.3367 43.4474ZM61.7842 40.8125C62.9442 40.8125 63.922 40.5846 64.7174 40.1289C65.5212 39.6732 66.126 39.0849 66.532 38.364C66.9463 37.6431 67.1535 36.8849 67.1535 36.0895V33.4048C67.0292 33.554 66.7558 33.6907 66.3332 33.815C65.9189 33.931 65.4383 34.0346 64.8914 34.1257C64.3528 34.2086 63.8267 34.2831 63.3129 34.3494C62.8075 34.4074 62.3973 34.4571 62.0825 34.4986C61.3202 34.598 60.6076 34.7596 59.9447 34.9833C59.2901 35.1987 58.7598 35.526 58.3538 35.9652C57.9561 36.3961 57.7572 36.9844 57.7572 37.7301C57.7572 38.7493 58.1342 39.5199 58.8882 40.0419C59.6505 40.5556 60.6159 40.8125 61.7842 40.8125ZM76.6461 50.1591C76.149 50.1591 75.7057 50.1177 75.3162 50.0348C74.9268 49.9602 74.6575 49.8857 74.5083 49.8111L75.2541 47.2259C75.9667 47.4081 76.5964 47.4744 77.1433 47.4247C77.6902 47.375 78.1749 47.1306 78.5975 46.6914C79.0284 46.2605 79.4219 45.5604 79.7782 44.5909L80.3251 43.0994L73.2654 23.9091H76.4473L81.7172 39.1222H81.916L87.1859 23.9091H90.3677L82.264 45.7841C81.8994 46.7701 81.4479 47.5863 80.9093 48.2326C80.3707 48.8872 79.7451 49.3719 79.0325 49.6868C78.3282 50.0017 77.5327 50.1591 76.6461 50.1591Z" fill="black"/>
<path d="M2 110L40.5 62" stroke="black"/>
<path d="M108.143 109.883L68.9118 62.117" stroke="black"/>
<path d="M7.26343 103.5L102.807 103.5" stroke="black"/>
<path d="M12.668 96.5L97.1086 96.5" stroke="black"/>
<path d="M17.6897 90.5L92.1512 90.5" stroke="black"/>
<path d="M21.4397 85.5L88 85.5" stroke="black"/>
<path d="M24.6624 81.5L85 81.5" stroke="black"/>
<path d="M27 78.5L82.2966 78.5" stroke="black"/>
<path d="M29 76L80.375 76" stroke="black"/>
<path d="M30.748 74L78.8471 74" stroke="black"/>
<path d="M32.5 72L77 72" stroke="black"/>
<path d="M33.8462 70L75.5001 70" stroke="black"/>
<path d="M35.5 68.3428L73.823 68.3428" stroke="black" stroke-width="0.8"/>
<path d="M37.7529 65.7571L71.7079 65.7571" stroke="black" stroke-width="0.5"/>
<path d="M38.5 64.7357L70.9999 64.7357" stroke="black" stroke-width="0.5"/>
<path d="M38.7932 63.891L70.5 63.891" stroke="black" stroke-width="0.5"/>
<path d="M39.635 63.1714L70 63.1714" stroke="black" stroke-width="0.35"/>
<path d="M36.7852 67L72.5 67" stroke="black" stroke-width="0.5"/>
</svg>
